<svg width="13" height="14" viewBox="0 0 13 14" fill="none" xmlns="http://www.w3.org/2000/svg">
<g clip-path="url(#clip0)">
<path d="M10.5625 2.94043H2.4375C1.7644 2.94043 1.21875 3.48608 1.21875 4.15918V11.4717C1.21875 12.1448 1.7644 12.6904 2.4375 12.6904H10.5625C11.2356 12.6904 11.7812 12.1448 11.7812 11.4717V4.15918C11.7812 3.48608 11.2356 2.94043 10.5625 2.94043Z" stroke="#848D95" stroke-linejoin="round"/>
<path d="M7.51562 7.40918C7.85217 7.40918 8.125 7.13635 8.125 6.7998C8.125 6.46326 7.85217 6.19043 7.51562 6.19043C7.17908 6.19043 6.90625 6.46326 6.90625 6.7998C6.90625 7.13635 7.17908 7.40918 7.51562 7.40918Z" fill="#848D95"/>
<path d="M9.54688 7.40918C9.88342 7.40918 10.1562 7.13635 10.1562 6.7998C10.1562 6.46326 9.88342 6.19043 9.54688 6.19043C9.21033 6.19043 8.9375 6.46326 8.9375 6.7998C8.9375 7.13635 9.21033 7.40918 9.54688 7.40918Z" fill="#848D95"/>
<path d="M7.51562 9.44043C7.85217 9.44043 8.125 9.1676 8.125 8.83105C8.125 8.49451 7.85217 8.22168 7.51562 8.22168C7.17908 8.22168 6.90625 8.49451 6.90625 8.83105C6.90625 9.1676 7.17908 9.44043 7.51562 9.44043Z" fill="#848D95"/>
<path d="M9.54688 9.44043C9.88342 9.44043 10.1562 9.1676 10.1562 8.83105C10.1562 8.49451 9.88342 8.22168 9.54688 8.22168C9.21033 8.22168 8.9375 8.49451 8.9375 8.83105C8.9375 9.1676 9.21033 9.44043 9.54688 9.44043Z" fill="#848D95"/>
<path d="M3.45312 9.44043C3.78967 9.44043 4.0625 9.1676 4.0625 8.83105C4.0625 8.49451 3.78967 8.22168 3.45312 8.22168C3.11658 8.22168 2.84375 8.49451 2.84375 8.83105C2.84375 9.1676 3.11658 9.44043 3.45312 9.44043Z" fill="#848D95"/>
<path d="M5.48438 9.44043C5.82092 9.44043 6.09375 9.1676 6.09375 8.83105C6.09375 8.49451 5.82092 8.22168 5.48438 8.22168C5.14783 8.22168 4.875 8.49451 4.875 8.83105C4.875 9.1676 5.14783 9.44043 5.48438 9.44043Z" fill="#848D95"/>
<path d="M3.45312 11.4717C3.78967 11.4717 4.0625 11.1989 4.0625 10.8623C4.0625 10.5258 3.78967 10.2529 3.45312 10.2529C3.11658 10.2529 2.84375 10.5258 2.84375 10.8623C2.84375 11.1989 3.11658 11.4717 3.45312 11.4717Z" fill="#848D95"/>
<path d="M5.48438 11.4717C5.82092 11.4717 6.09375 11.1989 6.09375 10.8623C6.09375 10.5258 5.82092 10.2529 5.48438 10.2529C5.14783 10.2529 4.875 10.5258 4.875 10.8623C4.875 11.1989 5.14783 11.4717 5.48438 11.4717Z" fill="#848D95"/>
<path d="M7.51562 11.4717C7.85217 11.4717 8.125 11.1989 8.125 10.8623C8.125 10.5258 7.85217 10.2529 7.51562 10.2529C7.17908 10.2529 6.90625 10.5258 6.90625 10.8623C6.90625 11.1989 7.17908 11.4717 7.51562 11.4717Z" fill="#848D95"/>
<path d="M9.75 2.12793V2.94043M3.25 2.12793V2.94043V2.12793Z" stroke="#848D95" stroke-linecap="round" stroke-linejoin="round"/>
<path d="M11.7812 4.97168H1.21875" stroke="#848D95" stroke-linejoin="round"/>
</g>
<defs>
<clipPath id="clip0">
<rect width="13" height="13" fill="white" transform="translate(0 0.90918)"/>
</clipPath>
</defs>
</svg>
